<mxfile host="Electron" modified="2024-12-13T11:31:33.946Z" agent="Mozilla/5.0 (Macintosh; Intel Mac OS X 10_15_7) AppleWebKit/537.36 (KHTML, like Gecko) draw.io/21.6.1 Chrome/112.0.5615.204 Electron/24.6.1 Safari/537.36" etag="KMDOeDIWSVAAj0wXM8b3" version="21.6.1" type="device">
  <diagram name="Page-1" id="A0ddSYeOJYw79E53BHBq">
    <mxGraphModel dx="1026" dy="683" grid="1" gridSize="10" guides="1" tooltips="1" connect="1" arrows="1" fold="1" page="1" pageScale="1" pageWidth="850" pageHeight="1100" math="0" shadow="0">
      <root>
        <mxCell id="0" />
        <mxCell id="1" parent="0" />
        <mxCell id="o5c49KbyqCH7PKH3lsZW-1" value="&lt;h1 style=&quot;box-sizing: inherit; color: var(--heading-font-color); font-weight: var(--heading-font-weight); hyphens: none; line-height: 1.3; margin: 0.8rem 0px 0.2rem; font-size: calc(42/var(--rem-base)*1rem); font-family: -apple-system, &amp;quot;system-ui&amp;quot;, &amp;quot;Segoe UI&amp;quot;, Roboto, Helvetica, Arial, sans-serif, &amp;quot;Apple Color Emoji&amp;quot;, &amp;quot;Segoe UI Emoji&amp;quot;, &amp;quot;Segoe UI Symbol&amp;quot;; text-align: start; background-color: rgb(255, 255, 255);&quot; class=&quot;page&quot; id=&quot;page-title&quot;&gt;Configuration&lt;/h1&gt;" style="rounded=0;whiteSpace=wrap;html=1;verticalAlign=bottom;fontSize=15;dashed=1;" vertex="1" parent="1">
          <mxGeometry x="170" y="150" width="210" height="400" as="geometry" />
        </mxCell>
        <mxCell id="o5c49KbyqCH7PKH3lsZW-9" style="edgeStyle=orthogonalEdgeStyle;rounded=0;orthogonalLoop=1;jettySize=auto;html=1;entryX=0.5;entryY=0;entryDx=0;entryDy=0;fillColor=#ffe6cc;strokeColor=#d79b00;" edge="1" parent="1" source="o5c49KbyqCH7PKH3lsZW-2" target="o5c49KbyqCH7PKH3lsZW-5">
          <mxGeometry relative="1" as="geometry" />
        </mxCell>
        <mxCell id="o5c49KbyqCH7PKH3lsZW-2" value="PropertySource 0" style="rounded=0;whiteSpace=wrap;html=1;fillColor=#ffe6cc;strokeColor=#d79b00;" vertex="1" parent="1">
          <mxGeometry x="200" y="170" width="150" height="60" as="geometry" />
        </mxCell>
        <mxCell id="o5c49KbyqCH7PKH3lsZW-11" style="edgeStyle=orthogonalEdgeStyle;rounded=0;orthogonalLoop=1;jettySize=auto;html=1;fillColor=#ffe6cc;strokeColor=#1C1723;" edge="1" parent="1" source="o5c49KbyqCH7PKH3lsZW-3" target="o5c49KbyqCH7PKH3lsZW-4">
          <mxGeometry relative="1" as="geometry" />
        </mxCell>
        <mxCell id="o5c49KbyqCH7PKH3lsZW-3" value="Default Properties PropertySource&lt;br&gt;" style="rounded=0;whiteSpace=wrap;html=1;fillColor=#d5e8d4;strokeColor=#82b366;verticalAlign=top;" vertex="1" parent="1">
          <mxGeometry x="200" y="340" width="150" height="80" as="geometry" />
        </mxCell>
        <mxCell id="o5c49KbyqCH7PKH3lsZW-4" value="PropertySource n" style="rounded=0;whiteSpace=wrap;html=1;fillColor=#ffe6cc;strokeColor=#d79b00;" vertex="1" parent="1">
          <mxGeometry x="200" y="450" width="150" height="60" as="geometry" />
        </mxCell>
        <mxCell id="o5c49KbyqCH7PKH3lsZW-5" value="" style="rounded=0;whiteSpace=wrap;html=1;fillColor=#ffe6cc;strokeColor=#d79b00;" vertex="1" parent="1">
          <mxGeometry x="230" y="260" width="90" height="10" as="geometry" />
        </mxCell>
        <mxCell id="o5c49KbyqCH7PKH3lsZW-6" value="" style="rounded=0;whiteSpace=wrap;html=1;fillColor=#ffe6cc;strokeColor=#d79b00;" vertex="1" parent="1">
          <mxGeometry x="230" y="280" width="90" height="10" as="geometry" />
        </mxCell>
        <mxCell id="o5c49KbyqCH7PKH3lsZW-10" style="edgeStyle=orthogonalEdgeStyle;rounded=0;orthogonalLoop=1;jettySize=auto;html=1;entryX=0.5;entryY=0;entryDx=0;entryDy=0;" edge="1" parent="1" source="o5c49KbyqCH7PKH3lsZW-7" target="o5c49KbyqCH7PKH3lsZW-3">
          <mxGeometry relative="1" as="geometry" />
        </mxCell>
        <mxCell id="o5c49KbyqCH7PKH3lsZW-7" value="" style="rounded=0;whiteSpace=wrap;html=1;fillColor=#ffe6cc;strokeColor=#d79b00;" vertex="1" parent="1">
          <mxGeometry x="230" y="300" width="90" height="10" as="geometry" />
        </mxCell>
        <mxCell id="o5c49KbyqCH7PKH3lsZW-15" value="" style="rounded=0;whiteSpace=wrap;html=1;dashed=1;fillColor=#d5e8d4;strokeColor=#82b366;" vertex="1" parent="1">
          <mxGeometry x="435" y="262.5" width="190" height="265" as="geometry" />
        </mxCell>
        <mxCell id="o5c49KbyqCH7PKH3lsZW-17" value="Kapok&#39;s Default Config" style="text;html=1;align=center;verticalAlign=middle;resizable=0;points=[];autosize=1;strokeColor=none;fillColor=none;" vertex="1" parent="1">
          <mxGeometry x="430" y="232.5" width="150" height="30" as="geometry" />
        </mxCell>
        <mxCell id="o5c49KbyqCH7PKH3lsZW-21" style="edgeStyle=orthogonalEdgeStyle;rounded=0;orthogonalLoop=1;jettySize=auto;html=1;entryX=0.5;entryY=0;entryDx=0;entryDy=0;" edge="1" parent="1" source="o5c49KbyqCH7PKH3lsZW-22" target="o5c49KbyqCH7PKH3lsZW-25">
          <mxGeometry relative="1" as="geometry" />
        </mxCell>
        <mxCell id="o5c49KbyqCH7PKH3lsZW-22" value="PropertySource 0" style="rounded=0;whiteSpace=wrap;html=1;fillColor=#ffe6cc;strokeColor=#d79b00;" vertex="1" parent="1">
          <mxGeometry x="455" y="280" width="150" height="60" as="geometry" />
        </mxCell>
        <mxCell id="o5c49KbyqCH7PKH3lsZW-24" value="PropertySource n" style="rounded=0;whiteSpace=wrap;html=1;fillColor=#ffe6cc;strokeColor=#d79b00;" vertex="1" parent="1">
          <mxGeometry x="455" y="450" width="150" height="60" as="geometry" />
        </mxCell>
        <mxCell id="o5c49KbyqCH7PKH3lsZW-25" value="" style="rounded=0;whiteSpace=wrap;html=1;fillColor=#ffe6cc;strokeColor=#d79b00;" vertex="1" parent="1">
          <mxGeometry x="485" y="370" width="90" height="10" as="geometry" />
        </mxCell>
        <mxCell id="o5c49KbyqCH7PKH3lsZW-26" value="" style="rounded=0;whiteSpace=wrap;html=1;fillColor=#ffe6cc;strokeColor=#d79b00;" vertex="1" parent="1">
          <mxGeometry x="485" y="390" width="90" height="10" as="geometry" />
        </mxCell>
        <mxCell id="o5c49KbyqCH7PKH3lsZW-27" style="edgeStyle=orthogonalEdgeStyle;rounded=0;orthogonalLoop=1;jettySize=auto;html=1;entryX=0.5;entryY=0;entryDx=0;entryDy=0;" edge="1" parent="1" source="o5c49KbyqCH7PKH3lsZW-28" target="o5c49KbyqCH7PKH3lsZW-24">
          <mxGeometry relative="1" as="geometry" />
        </mxCell>
        <mxCell id="o5c49KbyqCH7PKH3lsZW-28" value="" style="rounded=0;whiteSpace=wrap;html=1;fillColor=#ffe6cc;strokeColor=#d79b00;" vertex="1" parent="1">
          <mxGeometry x="485" y="410" width="90" height="10" as="geometry" />
        </mxCell>
        <mxCell id="o5c49KbyqCH7PKH3lsZW-29" value="Kapok&#39;s Delegate" style="rounded=0;whiteSpace=wrap;html=1;" vertex="1" parent="1">
          <mxGeometry x="215" y="385" width="120" height="20" as="geometry" />
        </mxCell>
        <mxCell id="o5c49KbyqCH7PKH3lsZW-16" value="" style="edgeStyle=orthogonalEdgeStyle;rounded=0;orthogonalLoop=1;jettySize=auto;html=1;exitX=1;exitY=0.5;exitDx=0;exitDy=0;" edge="1" parent="1" source="o5c49KbyqCH7PKH3lsZW-29" target="o5c49KbyqCH7PKH3lsZW-15">
          <mxGeometry relative="1" as="geometry" />
        </mxCell>
      </root>
    </mxGraphModel>
  </diagram>
</mxfile>
